<svg width="32" height="32" viewBox="0 0 32 32" fill="none" xmlns="http://www.w3.org/2000/svg">
<path d="M19 26.9891C24.6565 26.9891 27.4855 26.9891 29.242 25.0854C31 23.1833 31 20.1199 31 13.9946C31 7.86925 31 4.80578 29.242 2.9037C27.4855 1 24.6565 1 19 1H13C7.3435 1 4.5145 1 2.758 2.9037C1 4.80578 1 7.86925 1 13.9946C1 20.1199 1 23.1833 2.758 25.0854C3.7375 26.1477 5.05 26.6171 7 26.8234" stroke="#2E81F4" stroke-width="2" stroke-linecap="round" stroke-linejoin="round"/>
<path d="M19 26.9891C17.146 26.9891 15.103 27.8013 13.2385 28.849C10.2415 30.5334 8.743 31.3764 8.005 30.8388C7.267 30.3027 7.4065 28.6378 7.687 25.3096L7.75 24.5526M16 13.9946V14.0108V13.9946ZM10 13.9946V14.0108V13.9946ZM22 13.9946V14.0108V13.9946Z" stroke="#2E81F4" stroke-width="2" stroke-linecap="round"/>
</svg>
