<svg width="36" height="36" viewBox="0 0 36 36" fill="none" xmlns="http://www.w3.org/2000/svg">
<g style="mix-blend-mode:darken">
<g style="mix-blend-mode:multiply">
<path d="M18 2C14.8355 2 11.7421 2.93838 9.11088 4.69649C6.4797 6.45459 4.42894 8.95345 3.21793 11.8771C2.00693 14.8007 1.69008 18.0177 2.30744 21.1214C2.92481 24.2251 4.44866 27.0761 6.6863 29.3137C8.92394 31.5513 11.7749 33.0752 14.8786 33.6926C17.9823 34.3099 21.1993 33.9931 24.1229 32.7821C27.0466 31.5711 29.5454 29.5203 31.3035 26.8891C33.0616 24.2579 34 21.1645 34 18C34 13.7565 32.3143 9.68687 29.3137 6.68629C26.3131 3.68571 22.2435 2 18 2Z" fill="#00C664"/>
</g>
<path d="M8.89001 13.89C8.89001 13.4945 9.00731 13.1078 9.22707 12.7789C9.44684 12.45 9.75919 12.1936 10.1246 12.0423C10.4901 11.8909 10.8922 11.8513 11.2802 11.9284C11.6682 12.0056 12.0245 12.1961 12.3042 12.4758C12.5839 12.7555 12.7744 13.1119 12.8516 13.4998C12.9288 13.8878 12.8891 14.2899 12.7378 14.6554C12.5864 15.0208 12.3301 15.3332 12.0012 15.553C11.6723 15.7727 11.2856 15.89 10.89 15.89C10.3596 15.89 9.85087 15.6793 9.4758 15.3042C9.10073 14.9292 8.89001 14.4204 8.89001 13.89ZM18.13 28.21C16.2955 28.2124 14.5075 27.6329 13.0232 26.5547C11.539 25.4765 10.435 23.9554 9.87001 22.21H26.38C25.8156 23.9537 24.7131 25.4738 23.2308 26.5518C21.7486 27.6298 19.9628 28.2103 18.13 28.21ZM25.06 15.89C24.6645 15.89 24.2778 15.7727 23.9489 15.553C23.62 15.3332 23.3636 15.0208 23.2123 14.6554C23.0609 14.2899 23.0213 13.8878 23.0984 13.4998C23.1756 13.1119 23.3661 12.7555 23.6458 12.4758C23.9255 12.1961 24.2819 12.0056 24.6698 11.9284C25.0578 11.8513 25.4599 11.8909 25.8254 12.0423C26.1908 12.1936 26.5032 12.45 26.723 12.7789C26.9427 13.1078 27.06 13.4945 27.06 13.89C27.06 14.1535 27.008 14.4144 26.9068 14.6577C26.8057 14.901 26.6575 15.1219 26.4707 15.3078C26.2839 15.4936 26.0623 15.6407 25.8185 15.7407C25.5746 15.8406 25.3135 15.8913 25.05 15.89H25.06Z" fill="black" fill-opacity="0.8"/>
</g>
</svg>
