<svg width="30" height="30" viewBox="0 0 30 30" fill="none" xmlns="http://www.w3.org/2000/svg">
<path fill-rule="evenodd" clip-rule="evenodd" d="M6.46563 7.4925C5.55313 8.65375 5 10.24 5 11.8969C5 12.8575 5.165 13.7775 5.45625 14.6531H10.8844L13.0019 10.8881L14.325 15.5194L15.9438 13.4375H20V14.6875H16.5562L13.8 18.2313L12.6231 14.1119L11.6156 15.9025H2.5V14.6525H4.1475C3.88531 13.7572 3.75147 12.8292 3.75 11.8963C3.75 9.97438 4.38813 8.1125 5.4825 6.72C6.58 5.32375 8.16 4.375 10.02 4.375C12.2094 4.375 13.8744 5.60188 15 7.33375C16.125 5.6025 17.7906 4.375 19.9806 4.375C21.84 4.375 23.4206 5.32375 24.5181 6.72063C25.6113 8.1125 26.25 9.975 26.25 11.8969C26.25 16.0106 23.41 19.4463 20.7238 21.7913C19.0891 23.2067 17.3097 24.4456 15.415 25.4875L15.3206 25.5375L15.2956 25.5512L15.2881 25.5544L15.2863 25.5556H15.2856C15.2856 25.5556 15.285 25.5562 15 25L14.7287 25.5625L14.725 25.5612L14.7162 25.5569L14.685 25.5413C14.501 25.449 14.3185 25.3537 14.1375 25.2556C13.6297 24.9792 13.1307 24.687 12.6412 24.3794C11.4219 23.6144 9.8225 22.4875 8.3175 21.0462C7.515 20.2775 6.73625 19.415 6.055 18.4662C6.00442 18.3998 5.96768 18.3238 5.94695 18.2429C5.92622 18.162 5.92193 18.0777 5.93432 17.9951C5.94671 17.9125 5.97553 17.8332 6.01908 17.7619C6.06263 17.6907 6.12004 17.6288 6.18789 17.5801C6.25575 17.5314 6.33268 17.4968 6.41414 17.4783C6.4956 17.4598 6.57995 17.4579 6.66218 17.4725C6.74441 17.4872 6.82287 17.5182 6.89292 17.5637C6.96297 17.6092 7.02318 17.6683 7.07 17.7375C7.69813 18.6125 8.42375 19.4169 9.1825 20.1437C10.6069 21.5087 12.1325 22.5844 13.3056 23.3206C13.8556 23.666 14.418 23.991 14.9919 24.295L15.1494 24.2069C16.8401 23.2473 18.4319 22.1229 19.9012 20.85C22.5275 18.5569 25 15.4406 25 11.8963C25 10.24 24.4469 8.65313 23.535 7.49188C22.625 6.33563 21.3831 5.625 19.9806 5.625C18.0412 5.625 16.5369 6.8875 15.5613 8.87625L15 10.0188L14.4387 8.87625C13.4631 6.8875 11.9587 5.625 10.02 5.625C8.61687 5.625 7.375 6.335 6.46563 7.4925V7.4925ZM15 25L14.7287 25.5625L15.0087 25.6981L15.2856 25.5562L15 25Z" fill="#2E81F4"/>
</svg>
