<svg width="32" height="32" viewBox="0 0 32 32" fill="none" xmlns="http://www.w3.org/2000/svg">
<g style="mix-blend-mode:darken">
<circle cx="16" cy="16" r="16" fill="#F0D101"/>
<line x1="8.98218" y1="22" x2="22.9822" y2="22" stroke="black"/>
<path d="M22.5 16C23.8807 16 25 14.8807 25 13.5C25 12.1193 23.8807 11 22.5 11C21.1193 11 20 12.1193 20 13.5C20 14.8807 21.1193 16 22.5 16Z" fill="black"/>
<path d="M9.5 16C10.8807 16 12 14.8807 12 13.5C12 12.1193 10.8807 11 9.5 11C8.11929 11 7 12.1193 7 13.5C7 14.8807 8.11929 16 9.5 16Z" fill="black"/>
</g>
</svg>
