<svg width="32" height="32" viewBox="0 0 32 32" fill="none" xmlns="http://www.w3.org/2000/svg">
<g style="mix-blend-mode:darken">
<circle cx="16" cy="16" r="16" fill="#F01937"/>
<path d="M15.5459 20C14.2963 20.0002 13.0649 20.3204 11.9543 20.9337C10.8437 21.547 9.88615 22.4358 9.16141 23.5259C9.02743 23.7275 8.97372 23.9779 9.01211 24.2219C9.0505 24.466 9.17783 24.6837 9.3661 24.8271C9.55437 24.9706 9.78815 25.0281 10.016 24.987C10.2439 24.9459 10.4472 24.8096 10.5811 24.6079C11.1381 23.7702 11.8719 23.0852 12.7228 22.6087C13.5737 22.1322 14.5177 21.8777 15.4779 21.8659C16.4381 21.854 17.3873 22.0853 18.2482 22.5407C19.1091 22.9961 19.8574 23.6629 20.4322 24.4867C20.5708 24.6846 20.7771 24.8154 21.0058 24.8504C21.2345 24.8854 21.4668 24.8217 21.6516 24.6732C21.8364 24.5248 21.9586 24.3038 21.9912 24.0589C22.0239 23.814 21.9644 23.5652 21.8258 23.3673C21.0956 22.3217 20.1478 21.4729 19.0577 20.8884C17.9675 20.3038 16.765 19.9996 15.5459 20V20Z" fill="black"/>
<path d="M21.5 16C22.8807 16 24 14.8807 24 13.5C24 12.1193 22.8807 11 21.5 11C20.1193 11 19 12.1193 19 13.5C19 14.8807 20.1193 16 21.5 16Z" fill="black"/>
<path d="M9.5 16C10.8807 16 12 14.8807 12 13.5C12 12.1193 10.8807 11 9.5 11C8.11929 11 7 12.1193 7 13.5C7 14.8807 8.11929 16 9.5 16Z" fill="black"/>
</g>
</svg>
