<svg width="30" height="30" viewBox="0 0 30 30" fill="none" xmlns="http://www.w3.org/2000/svg">
<path fill-rule="evenodd" clip-rule="evenodd" d="M5.8326 28.2721V28.4614C5.8326 28.8694 5.65703 29.2608 5.34451 29.5494C5.03198 29.8379 4.60812 30 4.16614 30H1.66646C1.22449 30 0.800615 29.8379 0.488094 29.5494C0.175573 29.2608 0 28.8694 0 28.4614V20.0027C0 19.5947 0.175573 19.2033 0.488094 18.9148C0.800615 18.6262 1.22449 18.4641 1.66646 18.4641H4.16614C4.54145 18.464 4.90582 18.5808 5.20025 18.7957C5.49468 19.0105 5.70193 19.3109 5.78844 19.6481C6.89163 19.2811 8.18064 18.8441 8.57476 18.678C8.90971 18.5372 9.29633 18.4895 9.61796 18.4718C9.94988 18.4569 10.2825 18.4623 10.6137 18.488C10.9845 18.5152 11.3537 18.5584 11.7202 18.6172L11.7394 18.6203L11.7452 18.621H11.7477L11.7627 18.6241L17.337 19.7781L17.3712 19.7889L17.3803 19.7919L17.4186 19.8027C17.6591 19.8678 17.902 19.925 18.1469 19.9743C18.626 20.0704 19.2301 20.1604 19.7925 20.1604C20.3124 20.1604 20.8507 20.3397 21.1373 20.8259C21.384 21.2429 21.3265 21.7014 21.2348 22.0184C21.119 22.4138 20.8807 22.8292 20.5782 23.1823C20.9865 23.04 21.434 22.8715 21.9139 22.69L22.0164 22.6515C23.3687 22.1384 24.9719 21.5306 26.3867 21.3152C28.0031 21.0682 29.1788 21.6098 29.7121 22.5707C30.187 23.4262 30.0771 24.5486 29.3621 25.2249C29.183 25.3949 28.9097 25.5734 28.6356 25.7372C28.3423 25.9134 27.9815 26.1111 27.5807 26.3219C26.66 26.7979 25.7279 27.255 24.7852 27.6928C22.8088 28.6183 20.7374 29.5184 20.0791 29.7408C19.3159 29.9985 18.496 30.0231 17.7086 29.9854C17.2331 29.9581 16.7583 29.9209 16.2846 29.8738C15.9378 29.8407 15.5906 29.8112 15.2431 29.7854C13.6366 29.6731 12.4034 29.3107 11.2686 28.9776L11.1303 28.9368C9.95708 28.5937 8.86555 28.2883 7.4199 28.2344C7.08994 28.2221 6.43003 28.2452 5.8326 28.2714V28.2721ZM9.2655 20.0781C9.31966 20.0551 9.46131 20.022 9.71378 20.0081C9.95042 19.995 10.2204 20.0035 10.4845 20.022C10.8006 20.0454 11.1153 20.0822 11.4277 20.132H11.4302L16.902 21.2652L16.9395 21.276C17.221 21.3524 17.5053 21.4197 17.7919 21.4775C18.2794 21.576 18.9335 21.6791 19.5992 21.6968C19.5398 21.8448 19.46 21.9852 19.3617 22.1145C19.2284 22.293 19.0826 22.4307 18.9626 22.5099C18.616 22.7392 18.336 22.8346 18.1661 22.8754C18.1082 22.89 18.0491 22.9003 17.9894 22.9061H17.9711L13.5033 22.8569L13.345 24.3832L13.4933 23.6262L13.345 24.3832L13.3892 24.3909L13.5166 24.4117L13.9799 24.4871C14.369 24.5502 14.9031 24.6348 15.4847 24.7225C16.6296 24.8948 18.0094 25.0856 18.7926 25.1295C19.3342 25.1602 19.9642 25.0064 20.5499 24.8256C21.1607 24.6371 21.8514 24.3763 22.5463 24.1132C23.977 23.5716 25.4343 23.02 26.6583 22.8331C27.7165 22.6715 28.094 23.0285 28.229 23.2723C28.4231 23.6224 28.3181 24.0109 28.169 24.1509C28.1331 24.1855 28.0023 24.2832 27.729 24.4471C27.474 24.5986 27.1449 24.781 26.7583 24.9833C25.8603 25.4475 24.9513 25.8933 24.032 26.3204C22.0389 27.2536 20.0558 28.1098 19.5059 28.296C19.0609 28.4468 18.5102 28.4829 17.7944 28.4491C17.3728 28.4261 16.9519 28.393 16.5321 28.3498C16.1449 28.3122 15.7571 28.2794 15.3689 28.2514C13.9591 28.1529 12.8875 27.8382 11.7385 27.5013L11.6344 27.4705C10.4445 27.122 9.17135 26.7596 7.48739 26.6973C7.10827 26.6835 6.43336 26.705 5.8326 26.7312V21.2683C7.00329 20.8813 8.73807 20.3005 9.2655 20.0781V20.0781ZM11.5952 19.3781L11.7477 18.6218L11.5952 19.3781ZM4.16614 20.002H1.66646V28.4606H4.16614V20.0027V20.002Z" fill="#2E81F4"/>
<path d="M18.6642 3.38259L17.7083 2.47541C15.4646 0.345945 11.3504 1.0808 9.86529 3.75802C9.16804 5.01724 9.01073 6.83529 10.2839 9.15555C11.5104 11.3896 14.0621 14.0656 18.6642 16.9804C23.2663 14.0656 25.8166 11.3896 27.0445 9.15555C28.3176 6.83406 28.1617 5.01724 27.4631 3.75802C25.9779 1.0808 21.8638 0.344714 19.6201 2.47418L18.6642 3.38259ZM18.6642 18.4637C-1.77725 5.99212 12.3703 -3.7419 18.4295 1.40699C18.5095 1.47469 18.5882 1.54485 18.6642 1.61747C18.7394 1.54491 18.8177 1.47511 18.8988 1.40822C24.9567 -3.74436 39.1056 5.99089 18.6642 18.4637Z" fill="#2E81F4"/>
</svg>
