<svg xmlns="http://www.w3.org/2000/svg" xmlns:xlink="http://www.w3.org/1999/xlink" width="500" zoomAndPan="magnify" viewBox="0 0 375 374.999991" height="500" preserveAspectRatio="xMidYMid meet" version="1.0"><defs><g><g id="id1"/><g id="id2"/><g id="id3"/></g></defs><g fill="rgb(0%, 0%, 0%)" fill-opacity="1"><g transform="translate(126.304685, 201.749987)"><g><path d="M 14.75 0 L 9.203125 -19.53125 L 9.03125 -19.53125 C 9.289062 -16.207031 9.421875 -13.625 9.421875 -11.78125 L 9.421875 0 L 2.9375 0 L 2.9375 -27.125 L 12.6875 -27.125 L 18.34375 -7.875 L 18.5 -7.875 L 24.046875 -27.125 L 33.828125 -27.125 L 33.828125 0 L 27.09375 0 L 27.09375 -11.890625 C 27.09375 -12.515625 27.097656 -13.203125 27.109375 -13.953125 C 27.128906 -14.703125 27.21875 -16.550781 27.375 -19.5 L 27.203125 -19.5 L 21.734375 0 Z M 14.75 0 "/></g></g></g><g fill="rgb(0%, 0%, 0%)" fill-opacity="1"><g transform="translate(163.03541, 201.749987)"><g><path d="M 19.03125 0 L 2.9375 0 L 2.9375 -27.125 L 19.03125 -27.125 L 19.03125 -21.25 L 10.265625 -21.25 L 10.265625 -16.984375 L 18.390625 -16.984375 L 18.390625 -11.09375 L 10.265625 -11.09375 L 10.265625 -5.96875 L 19.03125 -5.96875 Z M 19.03125 0 "/></g></g></g><g fill="rgb(0%, 0%, 0%)" fill-opacity="1"><g transform="translate(183.88659, 201.749987)"><g><path d="M 19.03125 0 L 2.9375 0 L 2.9375 -27.125 L 19.03125 -27.125 L 19.03125 -21.25 L 10.265625 -21.25 L 10.265625 -16.984375 L 18.390625 -16.984375 L 18.390625 -11.09375 L 10.265625 -11.09375 L 10.265625 -5.96875 L 19.03125 -5.96875 Z M 19.03125 0 "/></g></g></g><g fill="rgb(0%, 0%, 0%)" fill-opacity="1"><g transform="translate(204.73777, 201.749987)"><g><path d="M 14.90625 0 L 7.578125 0 L 7.578125 -21.140625 L 0.953125 -21.140625 L 0.953125 -27.125 L 21.5 -27.125 L 21.5 -21.140625 L 14.90625 -21.140625 Z M 14.90625 0 "/></g></g></g><g fill="rgb(0%, 0%, 0%)" fill-opacity="1"><g transform="translate(227.184324, 201.749987)"><g><path d="M 8.234375 -10.90625 L 1.34375 -10.90625 L 1.34375 -15.890625 L 8.234375 -15.890625 L 8.234375 -22.6875 L 13.234375 -22.6875 L 13.234375 -15.890625 L 20.125 -15.890625 L 20.125 -10.90625 L 13.234375 -10.90625 L 13.234375 -4.21875 L 8.234375 -4.21875 Z M 8.234375 -10.90625 "/></g></g></g><g fill="rgb(0%, 0%, 0%)" fill-opacity="1"><g transform="translate(60.539064, 249.749984)"><g><path d="M 18.8125 -19.609375 L 11.484375 -19.609375 L 11.484375 0 L 7.59375 0 L 7.59375 -19.609375 L 0.296875 -19.609375 L 0.296875 -23.09375 L 18.8125 -23.09375 Z M 18.8125 -19.609375 "/></g></g></g><g fill="rgb(0%, 0%, 0%)" fill-opacity="1"><g transform="translate(79.646027, 249.749984)"><g><path d="M 23.0625 0 L 19.171875 0 L 19.171875 -9.5625 L 6.9375 -9.5625 L 6.9375 0 L 3.03125 0 L 3.03125 -23.09375 L 6.9375 -23.09375 L 6.9375 -13.0625 L 19.171875 -13.0625 L 19.171875 -23.09375 L 23.0625 -23.09375 Z M 23.0625 0 "/></g></g></g><g fill="rgb(0%, 0%, 0%)" fill-opacity="1"><g transform="translate(105.748969, 249.749984)"><g><path d="M 19.53125 -19.609375 L 6.9375 -19.609375 L 6.9375 -13.359375 L 18.21875 -13.359375 L 18.21875 -9.859375 L 6.9375 -9.859375 L 6.9375 -3.5 L 19.9375 -3.5 L 19.9375 0 L 3.03125 0 L 3.03125 -23.09375 L 19.53125 -23.09375 Z M 19.53125 -19.609375 "/></g></g></g><g fill="rgb(0%, 0%, 0%)" fill-opacity="1"><g transform="translate(127.39692, 249.749984)"><g/></g></g><g fill="rgb(0%, 0%, 0%)" fill-opacity="1"><g transform="translate(135.910901, 249.749984)"><g><path d="M 23.0625 0 L 19.234375 0 L 6.9375 -16.5625 L 6.9375 0 L 3.03125 0 L 3.03125 -23.09375 L 6.859375 -23.09375 L 19.234375 -6.5 L 19.234375 -23.09375 L 23.0625 -23.09375 Z M 23.0625 0 "/></g></g></g><g fill="rgb(0%, 0%, 0%)" fill-opacity="1"><g transform="translate(162.046847, 249.749984)"><g><path d="M 19.53125 -19.609375 L 6.9375 -19.609375 L 6.9375 -13.359375 L 18.21875 -13.359375 L 18.21875 -9.859375 L 6.9375 -9.859375 L 6.9375 -3.5 L 19.9375 -3.5 L 19.9375 0 L 3.03125 0 L 3.03125 -23.09375 L 19.53125 -23.09375 Z M 19.53125 -19.609375 "/></g></g></g><g fill="rgb(0%, 0%, 0%)" fill-opacity="1"><g transform="translate(183.694798, 249.749984)"><g><path d="M 26.796875 0 L 22.796875 0 L 17.328125 -18.015625 L 11.78125 0 L 7.75 0 L 0.09375 -23.09375 L 4.296875 -23.09375 L 9.90625 -4.328125 L 15.484375 -23.0625 L 19.3125 -23.09375 L 24.921875 -4.328125 L 30.484375 -23.09375 L 34.515625 -23.09375 Z M 26.796875 0 "/></g></g></g><g fill="rgb(0%, 0%, 0%)" fill-opacity="1"><g transform="translate(217.882727, 249.749984)"><g/></g></g><g fill="rgb(0%, 0%, 0%)" fill-opacity="1"><g transform="translate(226.396707, 249.749984)"><g><path d="M 26.796875 0 L 22.796875 0 L 17.328125 -18.015625 L 11.78125 0 L 7.75 0 L 0.09375 -23.09375 L 4.296875 -23.09375 L 9.90625 -4.328125 L 15.484375 -23.0625 L 19.3125 -23.09375 L 24.921875 -4.328125 L 30.484375 -23.09375 L 34.515625 -23.09375 Z M 26.796875 0 "/></g></g></g><g fill="rgb(0%, 0%, 0%)" fill-opacity="1"><g transform="translate(260.584636, 249.749984)"><g><path d="M 17.953125 -5.21875 L 6.296875 -5.21875 L 4.09375 0 L 0.03125 0 L 10.234375 -23.09375 L 14.21875 -23.09375 L 24.328125 0 L 20.15625 0 Z M 16.46875 -8.671875 L 12.109375 -18.9375 L 7.75 -8.671875 Z M 16.46875 -8.671875 "/></g></g></g><g fill="rgb(0%, 0%, 0%)" fill-opacity="1"><g transform="translate(284.9386, 249.749984)"><g><path d="M 12.5 -7.6875 L 12.5 0 L 8.640625 0 L 8.640625 -7.5625 L 0.03125 -23.09375 L 3.953125 -23.09375 L 10.5625 -11.84375 L 17.03125 -23.09375 L 20.984375 -23.09375 Z M 12.5 -7.6875 "/></g></g></g><g fill="rgb(0%, 0%, 0%)" fill-opacity="1"><g transform="translate(305.953114, 249.749984)"><g/></g></g><path stroke-linecap="round" transform="matrix(3.656347, -0.84728, 0.84655, 3.653197, 129.730441, 249.059338)" fill="none" stroke-linejoin="miter" d="M 0.499933 0.000263877 L 24.88087 -0.000471856 " stroke="rgb(100%, 8.628845%, 8.628845%)" stroke-width="1" stroke-opacity="1" stroke-miterlimit="4"/><g fill="rgb(100%, 8.628845%, 8.628845%)" fill-opacity="1"><g transform="translate(157.761509, 230.841392)"><g><path d="M 9.40625 -7.5625 C 9.832031 -6.207031 9.679688 -4.984375 8.953125 -3.890625 C 8.222656 -2.804688 6.992188 -1.992188 5.265625 -1.453125 C 3.660156 -0.941406 2.15625 -0.796875 0.75 -1.015625 L -0.1875 -3.96875 C 0.957031 -3.820312 1.910156 -3.765625 2.671875 -3.796875 C 3.429688 -3.835938 4.101562 -3.953125 4.6875 -4.140625 C 5.382812 -4.359375 5.875 -4.660156 6.15625 -5.046875 C 6.445312 -5.441406 6.507812 -5.898438 6.34375 -6.421875 C 6.25 -6.710938 6.082031 -6.945312 5.84375 -7.125 C 5.613281 -7.300781 5.304688 -7.441406 4.921875 -7.546875 C 4.535156 -7.660156 3.78125 -7.800781 2.65625 -7.96875 C 1.601562 -8.09375 0.785156 -8.28125 0.203125 -8.53125 C -0.378906 -8.789062 -0.890625 -9.140625 -1.328125 -9.578125 C -1.773438 -10.015625 -2.113281 -10.585938 -2.34375 -11.296875 C -2.757812 -12.609375 -2.632812 -13.785156 -1.96875 -14.828125 C -1.3125 -15.878906 -0.191406 -16.65625 1.390625 -17.15625 C 2.171875 -17.40625 2.941406 -17.546875 3.703125 -17.578125 C 4.460938 -17.617188 5.285156 -17.597656 6.171875 -17.515625 L 5.921875 -14.703125 C 5.023438 -14.785156 4.289062 -14.804688 3.71875 -14.765625 C 3.15625 -14.734375 2.625 -14.640625 2.125 -14.484375 C 1.519531 -14.296875 1.101562 -14.007812 0.875 -13.625 C 0.644531 -13.238281 0.601562 -12.816406 0.75 -12.359375 C 0.84375 -12.085938 0.984375 -11.867188 1.171875 -11.703125 C 1.359375 -11.535156 1.625 -11.394531 1.96875 -11.28125 C 2.320312 -11.175781 3.109375 -11.039062 4.328125 -10.875 C 5.929688 -10.65625 7.097656 -10.289062 7.828125 -9.78125 C 8.566406 -9.269531 9.09375 -8.53125 9.40625 -7.5625 Z M 9.40625 -7.5625 "/></g></g></g><g fill="rgb(100%, 8.628845%, 8.628845%)" fill-opacity="1"><g transform="translate(169.309422, 227.17809)"><g><path d="M 11.046875 -3.5 L 8.84375 -6.71875 L 3.390625 -5 L 3.421875 -1.09375 L 0 0 L 0.515625 -16.703125 L 4.390625 -17.9375 L 14.46875 -4.59375 Z M 7.234375 -9.140625 C 5.203125 -12.046875 4.054688 -13.691406 3.796875 -14.078125 C 3.546875 -14.460938 3.347656 -14.769531 3.203125 -15 C 3.253906 -14.050781 3.296875 -11.6875 3.328125 -7.90625 Z M 7.234375 -9.140625 "/></g></g></g><g fill="rgb(100%, 8.628845%, 8.628845%)" fill-opacity="1"><g transform="translate(183.77503, 222.589217)"><g><path d="M 5 -1.59375 L 1.890625 -0.59375 L -2.859375 -15.5625 L 5.71875 -18.296875 L 6.546875 -15.703125 L 1.078125 -13.96875 L 2.296875 -10.09375 L 7.375 -11.703125 L 8.203125 -9.109375 L 3.125 -7.5 Z M 5 -1.59375 "/></g></g></g><g fill="rgb(100%, 8.628845%, 8.628845%)" fill-opacity="1"><g transform="translate(195.281993, 218.938905)"><g><path d="M 10.5 -3.328125 L 1.890625 -0.59375 L -2.859375 -15.5625 L 5.75 -18.296875 L 6.578125 -15.703125 L 1.140625 -13.984375 L 2.1875 -10.6875 L 7.25 -12.296875 L 8.0625 -9.703125 L 3 -8.09375 L 4.234375 -4.234375 L 9.671875 -5.953125 Z M 10.5 -3.328125 "/></g></g></g></svg>